<svg xmlns="http://www.w3.org/2000/svg" viewBox="0 0 438.5 438.5"><path d="M422 16.6C410.9 5.5 397.7 0 382.3 0h-326C40.8 0 27.6 5.5 16.6 16.6 5.5 27.6 0 40.8 0 56.2v326c0 15.4 5.5 28.6 16.6 39.7 11 11 24.3 16.6 39.7 16.6h326c15.4 0 28.6-5.5 39.7-16.6 11-11 16.6-24.3 16.6-39.7v-326c-.1-15.4-5.6-28.6-16.6-39.6zM157.5 158c17.2-16.7 37.9-25 62.1-25 24.4 0 45.2 8.3 62.4 25s25.8 36.8 25.8 60.4-8.6 43.7-25.8 60.4-38 25-62.4 25c-24.2 0-44.9-8.3-62.1-25s-25.8-36.8-25.8-60.4c-.1-23.6 8.5-43.7 25.8-60.4zm231.4 212.6c0 4.9-1.7 9.1-5.1 12.4s-7.5 5-12.3 5H66.2c-4.9 0-9.1-1.7-12.4-5s-5-7.5-5-12.4v-185h40.3c-3.8 12-5.7 24.5-5.7 37.4 0 36.6 13.3 67.7 40 93.5 26.6 25.8 58.7 38.7 96.2 38.7 24.7 0 47.6-5.9 68.5-17.7s37.5-27.8 49.7-48.1C349.9 269.1 356 247 356 223c0-12.9-1.9-25.4-5.7-37.4h38.5l.1 185zm0-255c0 5.5-1.9 10.2-5.7 14s-8.5 5.7-14 5.7h-49.7c-5.5 0-10.2-1.9-14-5.7s-5.7-8.5-5.7-14V68.5c0-5.3 1.9-9.9 5.7-13.8s8.5-5.9 14-5.9h49.7c5.5 0 10.2 2 14 5.9s5.7 8.5 5.7 13.8v47.1z" fill="#636770"/></svg>