<svg xmlns="http://www.w3.org/2000/svg" viewBox="0 0 438.5 438.5"><path d="M414.4 24.1C398.3 8 379 0 356.3 0H82.2c-22.6 0-42 8-58.1 24.1S0 59.6 0 82.2v274.1c0 22.6 8 42 24.1 58.1s35.5 24.1 58.1 24.1h274.1c22.6 0 42-8 58.1-24.1s24.1-35.5 24.1-58.1V82.2c0-22.6-8-42-24.1-58.1zm-78.9 144.6c.2 1.7.3 4.3.3 7.7 0 16-2.3 32-7 48.1S317 256 307.4 270.8c-9.6 14.7-21.1 27.8-34.4 39.1s-29.3 20.4-48 27.1c-18.6 6.8-38.6 10.1-60 10.1-33.1 0-63.8-9-91.9-26.8 4.6.6 9.3.9 14.3.9 27.6 0 52.4-8.6 74.5-25.7-12.9-.2-24.5-4.2-34.7-12s-17.3-17.7-21.3-29.7c4.9.8 8.7 1.1 11.1 1.1 4.2 0 9-.8 14.6-2.3-13.9-2.7-25.6-9.6-35.1-20.7s-14.3-23.8-14.3-38.1v-.6c10.1 4.8 19.6 7.2 28.5 7.4-17.3-11.6-26-28.3-26-50 0-10.7 2.8-20.7 8.3-30.3 15 18.5 33.3 33.2 54.8 44.3 21.5 11 44.5 17.2 69.1 18.6-.9-3.6-1.4-8.2-1.4-13.7 0-16.6 5.9-30.7 17.6-42.4s25.8-17.6 42.4-17.6c17.5 0 32.1 6.3 43.7 18.8 13.1-2.5 25.9-7.3 38.3-14.6-4.8 14.7-13.6 25.8-26.5 33.4 12.4-1.7 23.9-4.9 34.5-9.7-8 12.4-18 22.8-30 31.3z" fill="#636770"/></svg>